<svg width="50" height="50" viewBox="0 0 50 50" fill="none" xmlns="http://www.w3.org/2000/svg">
<path d="M13.0371 21.6797C13.8462 21.6797 14.502 21.0238 14.502 20.2148V16.3086C14.502 15.4996 13.8461 14.8438 13.0371 14.8438C12.2281 14.8438 11.5723 15.4996 11.5723 16.3086V20.2148C11.5723 21.0238 12.2281 21.6797 13.0371 21.6797Z" fill="#BFD900"/>
<path d="M18.1643 21.4834C18.8649 21.8879 19.7608 21.6478 20.1652 20.9473L22.1184 17.5643C22.5229 16.8638 22.2828 15.9679 21.5822 15.5634C20.8816 15.1589 19.9857 15.3989 19.5813 16.0995L17.6281 19.4824C17.2236 20.183 17.4637 21.0789 18.1643 21.4834Z" fill="#BFD900"/>
<path d="M5.90938 20.9473C6.31387 21.6478 7.20977 21.8879 7.91036 21.4834C8.61094 21.0789 8.85098 20.183 8.44649 19.4824L6.49337 16.0995C6.08887 15.3989 5.19298 15.1589 4.49239 15.5634C3.7918 15.9679 3.55177 16.8638 3.95626 17.5643L5.90938 20.9473Z" fill="#BFD900"/>
<path d="M42.277 16.3778L38.3123 9.60838C37.3661 7.99274 35.6342 7 33.7619 7H27.0394C25.2948 7 23.8754 8.41933 23.8754 10.1639L23.8752 14.3824C23.8751 15.2297 24.2059 16.0263 24.8064 16.6244C25.411 17.2267 26.2416 17.5465 27.095 17.5464H29.1484V14.0303H28.1236C27.5557 14.0303 27.067 13.5938 27.0403 13.0266C27.0117 12.4209 27.4943 11.9209 28.0938 11.9209H30.2031C30.7856 11.9209 31.2578 12.3931 31.2578 12.9756V17.5463H31.9614C32.5439 17.5463 33.0161 18.0185 33.0161 18.601V28.5214C31.8594 27.8105 30.5208 27.4273 29.1489 27.4273C27.4533 27.4273 25.8083 28.0126 24.4948 29.0791C22.7043 26.3743 19.6522 24.7189 16.3829 24.7189C16.3827 24.7189 16.382 24.7189 16.3817 24.7189C11.2162 24.7197 7.01247 28.9164 7.00003 34.079C6.98828 38.9856 11.08 43 15.9867 43H26.7862C32.1721 43 37.5752 41.7467 42.4113 39.3759C42.772 39.199 43 38.8315 43 38.4297V19.0429C43 18.1072 42.75 17.1856 42.277 16.3778Z" fill="#BFD900"/>
</svg>
