<svg width="50" height="50" viewBox="0 0 50 50" fill="none" xmlns="http://www.w3.org/2000/svg">
<path fill-rule="evenodd" clip-rule="evenodd" d="M22.4386 18.9268C22.4611 19.3164 22.2999 19.7041 21.9738 20.0488C21.4191 20.6357 20.4327 21.0449 19.5743 21.0449C19.5353 21.0449 19.4962 21.0439 19.4581 21.043C19.2462 21.0352 19.0548 20.9141 18.9581 20.7256C18.3654 19.5752 17.1945 18.8604 15.9015 18.8604C14.9406 18.8604 14.049 19.2471 13.3917 19.9502C12.9054 20.4697 12.0812 20.5029 11.5548 20.0254C11.2052 19.708 10.7521 19.5332 10.2804 19.5332C9.7765 19.5332 9.30286 19.7285 8.94544 20.083C8.67298 20.3535 8.26771 20.4326 7.91322 20.2852C7.55872 20.1377 7.32923 19.7939 7.32923 19.4102V16.1523C7.29114 15.2822 7.60755 14.1855 8.17884 13.2129C8.33314 12.9502 8.59486 12.7822 8.89661 12.75C9.20032 12.7178 9.49036 12.8291 9.69544 13.0537C9.91517 13.293 10.3341 13.4209 10.5529 13.4209H10.7804C11.8576 13.4209 12.8771 13.1621 13.6954 12.6865C13.2111 11.3027 11.964 10.3174 10.4796 10.1875C9.59778 10.1113 8.81946 10.375 8.16712 10.9727C7.58802 11.5039 7.26087 12.1582 7.19544 12.916C7.18275 13.0674 7.11243 13.207 6.99818 13.3076C5.96595 14.2119 5.00208 15.4131 4.21204 16.7822C3.22669 18.4883 2.52454 21.1084 2.54896 22.9512C3.11634 23.6494 6.86439 26.3174 10.5909 26.1631C11.3536 26.1318 12.6486 25.8887 13.0245 25.5654C13.2335 25.3857 13.5304 25.3438 13.7804 25.459C14.0314 25.5742 14.1925 25.8262 14.1925 26.1025C14.1925 27.6162 14.8273 28.9941 15.8898 29.7939C16.5646 30.3018 17.0158 30.9072 17.3077 31.7002C18.1974 34.1162 19.1857 38.6943 19.3097 41.6465H30.5128C30.6368 38.6943 31.6251 34.1162 32.5148 31.7002C32.8068 30.9082 33.257 30.3027 33.9327 29.7939C34.9952 28.9941 35.63 27.6162 35.63 26.1084C35.63 25.8262 35.7911 25.5742 36.0421 25.459C36.2921 25.3438 36.589 25.3857 36.798 25.5654C37.174 25.8887 38.4689 26.1318 39.2316 26.1631C42.9591 26.3203 46.7081 23.6494 47.2745 22.9512C47.299 21.1084 46.5968 18.4883 45.6115 16.7822C44.8214 15.4131 43.8566 14.2119 42.8234 13.3076C42.712 13.207 42.6398 13.0674 42.6281 12.916C42.5607 12.1582 42.2335 11.5039 41.6554 10.9727C41.0031 10.375 40.2257 10.1104 39.3429 10.1875C37.8585 10.3174 36.6115 11.3027 36.1271 12.6865C36.9454 13.1621 37.965 13.4209 39.0421 13.4209H39.2697C39.4884 13.4209 39.9074 13.293 40.1271 13.0537C40.3322 12.8291 40.6222 12.7178 40.9259 12.75C41.2277 12.7822 41.4894 12.9502 41.6437 13.2129C42.214 14.1855 42.5333 15.2822 42.4933 16.1523V19.4102C42.4933 19.7939 42.2658 20.1377 41.9113 20.2852C41.5558 20.4326 41.1505 20.3535 40.8781 20.083C40.5206 19.7285 40.047 19.5332 39.5431 19.5332C39.0704 19.5332 38.6183 19.708 38.2697 20.0244C37.7423 20.5039 36.9181 20.4697 36.4318 19.9502C35.7745 19.2471 34.8829 18.8604 33.922 18.8604C32.629 18.8604 31.4581 19.5752 30.8654 20.7256C30.7687 20.9141 30.5773 21.0352 30.3654 21.043C30.3273 21.0439 30.2882 21.0449 30.2492 21.0449C29.3908 21.0449 28.4044 20.6357 27.8497 20.0488C27.5236 19.7041 27.3624 19.3164 27.3849 18.9268C27.3849 18.916 27.3859 18.9063 27.3868 18.8965C27.5255 17.6006 28.1066 16.3887 29.0324 15.457V13.6162C29.0324 10.543 26.8966 9.14355 24.9122 9.14355C22.9279 9.14355 20.7921 10.543 20.7921 13.6162V15.457C21.7179 16.3887 22.299 17.6006 22.4376 18.8965C22.4376 18.9063 22.4386 18.916 22.4386 18.9268ZM18.8253 28.0889C18.8253 28.3789 18.589 28.6152 18.299 28.6152C18.0089 28.6152 17.7726 28.3789 17.7726 28.0889V25.3965C17.7726 25.1055 18.0089 24.8701 18.299 24.8701C18.589 24.8701 18.8253 25.1055 18.8253 25.3965V28.0889ZM21.5743 29.5098C21.5743 29.9453 21.2208 30.2988 20.7863 30.2988C20.3507 30.2988 19.9972 29.9453 19.9972 29.5098V23.9746C19.9972 23.54 20.3507 23.1865 20.7863 23.1865C21.2208 23.1865 21.5743 23.54 21.5743 23.9746V29.5098ZM27.0763 27.2324H22.7462V26.2529H27.0763V27.2324ZM29.8253 29.5098C29.8253 29.9453 29.4718 30.2988 29.0363 30.2988C28.6017 30.2988 28.2482 29.9453 28.2482 29.5098V23.9746C28.2482 23.54 28.6017 23.1865 29.0363 23.1865C29.4718 23.1865 29.8253 23.54 29.8253 23.9746V29.5098ZM30.9972 25.3965C30.9972 25.1055 31.2335 24.8701 31.5236 24.8701C31.8136 24.8701 32.0499 25.1055 32.0499 25.3965V28.0889C32.0499 28.3789 31.8136 28.6152 31.5236 28.6152C31.2335 28.6152 30.9972 28.3789 30.9972 28.0889V25.3965ZM27.0763 23.9746C27.0763 22.8936 27.9552 22.0146 29.0363 22.0146C30.0538 22.0146 30.8917 22.793 30.9874 23.7861C31.1564 23.7295 31.3361 23.6982 31.5236 23.6982C32.4601 23.6982 33.2218 24.46 33.2218 25.3965V28.0889C33.2218 29.0254 32.4601 29.7871 31.5236 29.7871C31.3361 29.7871 31.1564 29.7559 30.9874 29.6992C30.8917 30.6914 30.0538 31.4707 29.0363 31.4707C27.9552 31.4707 27.0763 30.5908 27.0763 29.5098V28.4043H22.7462V29.5098C22.7462 30.5908 21.8673 31.4707 20.7863 31.4707C19.7687 31.4707 18.9308 30.6914 18.8351 29.6992C18.6661 29.7559 18.4865 29.7871 18.299 29.7871C17.3624 29.7871 16.6007 29.0254 16.6007 28.0889V25.3965C16.6007 24.46 17.3624 23.6982 18.299 23.6982C18.4865 23.6982 18.6661 23.7295 18.8351 23.7861C18.9308 22.793 19.7687 22.0146 20.7863 22.0146C21.8673 22.0146 22.7462 22.8936 22.7462 23.9746V25.0811H27.0763V23.9746Z" fill="#BFD900"/>
</svg>
