<svg width="50" height="50" viewBox="0 0 50 50" fill="none" xmlns="http://www.w3.org/2000/svg">
<path d="M8.10814 20.8579C8.24322 20.9126 8.38615 20.9398 8.52908 20.9398C8.67696 20.9398 8.82484 20.9106 8.9637 20.8521L12.3073 19.4491C12.8759 19.2102 13.1425 18.5584 12.9023 17.9928C12.6625 17.4272 12.0066 17.1623 11.4378 17.4008L10.6201 17.7441C13.1576 12 18.8994 8.22308 25.288 8.22308C32.5924 8.22308 38.971 13.1344 40.7998 20.1663C40.9302 20.6674 41.3837 21 41.8812 21C41.9738 21 42.0681 20.9884 42.1618 20.9644C42.7595 20.8107 43.1187 20.2043 42.9641 19.61C40.8804 11.5965 33.6115 6 25.288 6C17.967 6 11.3921 10.353 8.5253 16.9605L8.14802 16.0713C7.90786 15.506 7.2523 15.2408 6.68348 15.4794C6.11466 15.7182 5.8483 16.3703 6.08817 16.9356L7.49915 20.2604C7.61443 20.5319 7.83334 20.747 8.10814 20.8579Z" fill="#BFD900"/>
<path d="M43.9118 32.9603L42.5008 29.672C42.3856 29.4032 42.1664 29.1907 41.8919 29.0808C41.6171 28.9711 41.3094 28.9731 41.0363 29.0865L37.6927 30.4746C37.1241 30.7105 36.8575 31.3556 37.0977 31.915C37.3375 32.4745 37.9934 32.7364 38.5622 32.5002L39.4981 32.1117C37.024 37.9456 31.2019 41.8011 24.7123 41.8011C17.4076 41.8011 11.029 36.9432 9.20024 29.9878C9.04566 29.3998 8.4358 29.047 7.83816 29.1985C7.24052 29.3505 6.8813 29.9503 7.03588 30.5381C9.1196 38.4644 16.3885 44 24.7123 44C32.0744 44 38.6821 39.6458 41.5227 33.048L41.852 33.8153C42.0322 34.2353 42.4464 34.4875 42.8825 34.4875C43.0272 34.4875 43.1748 34.4598 43.3165 34.4008C43.8853 34.1646 44.1517 33.5198 43.9118 32.9603Z" fill="#BFD900"/>
<path d="M22.6511 37.9308C22.769 37.9777 22.891 38 23.0117 38C23.3232 38 23.6264 37.8496 23.8328 37.5751L32.7557 25.7074C33.0187 25.3576 33.0742 24.8726 32.8986 24.4621C32.7227 24.0519 32.3474 23.7899 31.935 23.7899H28.0535V13.1714C28.0535 12.6773 27.7717 12.2366 27.3489 12.0692C26.9265 11.902 26.4538 12.0444 26.1672 12.4251L17.2443 24.2928C16.9813 24.6423 16.9258 25.1276 17.1014 25.5378C17.2773 25.9483 17.6528 26.2103 18.0653 26.2103H21.9468V36.8288C21.9465 37.3229 22.2283 37.7636 22.6511 37.9308Z" fill="#BFD900"/>
</svg>
