<svg width="26" height="27" viewBox="0 0 26 27" fill="none" xmlns="http://www.w3.org/2000/svg">
<g id="Energy_efficiency">
<path id="Vector" d="M23.8361 5.22982L20.2646 6.49378C19.015 5.33828 17.4762 4.50018 15.7915 4.05748L15.1639 0.5H10.8361L10.2085 4.05748C8.52381 4.50016 6.98504 5.33826 5.73542 6.49378L2.16383 5.22982L0 8.77024L2.94946 11.0639C2.50148 12.6604 2.50148 14.3396 2.94946 15.9362L0 18.2298L2.16383 21.7702L5.73542 20.5063C6.98506 21.6618 8.52382 22.4999 10.2085 22.9426L10.8361 26.5H15.1639L15.7915 22.9426C17.4762 22.4998 19.015 21.6617 20.2646 20.5063L23.8361 21.7702L26 18.2298L23.0507 15.9361C23.4984 14.3396 23.4984 12.6604 23.0507 11.0638L26 8.77021L23.8361 5.22982ZM16.8143 13.9229L13.8952 19.4381C13.8365 19.5493 13.7552 19.6485 13.6559 19.73C13.5566 19.8115 13.4413 19.8738 13.3165 19.9131C13.1918 19.9525 13.06 19.9683 12.9288 19.9595C12.7976 19.9508 12.6695 19.9176 12.5518 19.8621C12.4342 19.8065 12.3293 19.7296 12.2431 19.6357C12.157 19.5417 12.0912 19.4327 12.0497 19.3148C12.0082 19.1969 11.9917 19.0724 12.0012 18.9485C12.0107 18.8245 12.0459 18.7036 12.1049 18.5925L14.3 14.4457H10.0808C9.91022 14.4458 9.74243 14.4046 9.5934 14.3261C9.44438 14.2476 9.31906 14.1344 9.22937 13.9973C9.13968 13.8602 9.08859 13.7037 9.08095 13.5427C9.0733 13.3817 9.10937 13.2215 9.18571 13.0773L12.1049 7.56218C12.2238 7.33828 12.432 7.16813 12.6836 7.08908C12.9352 7.01003 13.2098 7.02856 13.447 7.14059C13.6841 7.25261 13.8646 7.44899 13.9486 7.68658C14.0326 7.92417 14.0134 8.18355 13.8952 8.40777L11.7001 12.5545H15.9192C16.0898 12.5545 16.2576 12.5957 16.4066 12.6742C16.5557 12.7527 16.681 12.8658 16.7707 13.003C16.8604 13.1401 16.9115 13.2966 16.9191 13.4576C16.9267 13.6186 16.8907 13.7788 16.8143 13.9229Z" fill="#BFD900"/>
</g>
</svg>
