<svg width="138" height="11" viewBox="0 0 138 11" fill="none" xmlns="http://www.w3.org/2000/svg">
<path d="M2 4L4.9694 7.19782C6.8978 9.27455 10.165 9.33503 12.1689 7.3311L15.9645 3.53554C17.9171 1.58292 21.0829 1.58291 23.0355 3.53553L26.9645 7.46446C28.9171 9.41708 32.0829 9.41709 34.0355 7.46447L37.9645 3.53554C39.9171 1.58292 43.0829 1.58291 45.0355 3.53553L48.9645 7.46446C50.9171 9.41708 54.0829 9.41709 56.0355 7.46447L59.9645 3.53554C61.9171 1.58292 65.0829 1.58291 67.0355 3.53553L70.9645 7.46446C72.9171 9.41708 76.0829 9.41709 78.0355 7.46447L81.9645 3.53554C83.9171 1.58292 87.0829 1.58291 89.0355 3.53553L92.9645 7.46446C94.9171 9.41708 98.0829 9.41709 100.036 7.46447L103.964 3.53554C105.917 1.58292 109.083 1.58291 111.036 3.53553L114.964 7.46446C116.917 9.41708 120.083 9.41709 122.036 7.46447L125.964 3.53554C127.917 1.58292 131.083 1.58291 133.036 3.53553L136.5 7" stroke="#BFD900" stroke-width="3"/>
</svg>
