<svg width="50" height="50" viewBox="0 0 50 50" fill="none" xmlns="http://www.w3.org/2000/svg">
<g clip-path="url(#clip0_466_1725)">
<path d="M25.1784 12.8489C21.0953 12.8489 17.7734 16.1705 17.7734 20.2535C17.7734 24.3364 21.0953 27.6581 25.1784 27.6581C29.2616 27.6581 32.5834 24.3364 32.5834 20.2535C32.5834 16.1705 29.2616 12.8489 25.1784 12.8489ZM25.1784 25.2879C22.4022 25.2879 20.1437 23.0295 20.1437 20.2535C20.1437 17.4776 22.4022 15.2191 25.1784 15.2191C27.9545 15.2191 30.2131 17.4776 30.2131 20.2535C30.2131 23.0295 27.9545 25.2879 25.1784 25.2879Z" fill="#BFD900"/>
<path d="M27.8383 20.2763C27.8531 18.805 26.6722 17.6002 25.2008 17.5856C23.7293 17.5708 22.5246 18.7516 22.5099 20.223C22.4952 21.6943 23.676 22.899 25.1474 22.9137C26.6188 22.9284 27.8236 21.7476 27.8383 20.2763Z" fill="#BFD900"/>
<path d="M41.4705 28.7268C40.0323 27.1782 39.3878 25.0611 39.7768 22.9755C40.2515 19.7043 39.6829 16.2788 38.1321 13.0691C35.8883 8.15758 30.3767 5.19491 25.1773 4.89506C16.2803 4.11006 8.0805 11.7338 8.26073 20.6874C8.26073 24.3254 9.52697 27.8785 11.8263 30.6919C13.2668 32.4547 14.0152 34.6121 13.9336 36.7667C13.8834 38.0883 13.5961 39.3511 13.0793 40.5195C12.7652 41.1845 13.2059 42.033 13.9304 42.1593L29.5248 45.2858C30.2586 45.4542 31.0093 44.8019 30.9407 44.0495C30.8484 42.5963 31.1597 41.6711 31.3973 41.1915H33.6072C36.234 41.1915 38.5279 39.326 39.0618 36.7559L39.6693 33.8311L40.9637 32.8293C42.2285 31.8921 42.4694 29.9433 41.4705 28.7268ZM25.1773 30.0285C19.7872 30.0285 15.4019 25.6435 15.4019 20.2537C15.4019 14.8638 19.7872 10.4788 25.1773 10.4788C30.5676 10.4788 34.9528 14.8637 34.9528 20.2537C34.9528 25.6436 30.5676 30.0285 25.1773 30.0285Z" fill="#BFD900"/>
</g>
<defs>
<clipPath id="clip0_466_1725">
<rect width="50" height="50" fill="white"/>
</clipPath>
</defs>
</svg>
