<svg width="50" height="50" viewBox="0 0 50 50" fill="none" xmlns="http://www.w3.org/2000/svg">
<path d="M21.1593 12.8364C21.3897 12.8364 21.6029 12.7122 21.7162 12.5118C21.8302 12.3115 21.827 12.065 21.7079 11.8672L18.4488 6.43468H24.4274L25.5342 16.3938L22.6426 15.4297C22.4102 15.3523 22.1541 15.4144 21.9825 15.5891C21.811 15.7639 21.7546 16.0219 21.8366 16.2524L23.4383 20.7374L17.9072 12.8364H21.1593ZM20.5748 18.879L25.1162 25.3665C25.2397 25.5432 25.4376 25.6399 25.6405 25.6399C25.7397 25.6399 25.8402 25.6168 25.9337 25.5688C26.2186 25.4216 26.3504 25.0867 26.2429 24.7846L23.4844 17.0609L26.0777 17.9258C26.2851 17.9936 26.513 17.9533 26.6827 17.8163C26.8523 17.6793 26.9407 17.4648 26.9164 17.2478L26.6027 14.424C29.2056 12.9215 31.998 11.775 34.914 11.0228C35.1867 10.9517 35.4671 10.9159 35.7482 10.9159C36.3147 10.9159 36.8403 11.0708 37.3076 11.3211L27.1443 20.0326L27.9778 21.005L38.3133 12.1463C38.3998 12.2513 38.4849 12.3556 38.5579 12.4702C32.5652 23.6201 23.4761 32.5684 12.2334 38.3857C12.1668 38.3345 12.1021 38.282 12.04 38.2263L21.6714 25.3838L20.6471 24.6156L11.8544 36.3391L12.4549 34.7629C14.3478 29.7946 17.2133 25.3697 20.9717 21.6112L20.0665 20.706C16.1794 24.5932 13.216 29.1691 11.2584 34.3071L11.017 34.9403C11.019 34.9313 11.0196 34.9224 11.0222 34.914C12.6155 28.7396 15.915 23.213 20.5748 18.879ZM7.13567 44L6 42.8643L9.99788 37.5375C10.4658 38.6456 11.3544 39.5342 12.4625 40.0021L7.13567 44ZM29.5327 37.163L30.066 43.5647H25.2481L26.8882 38.6456C26.9535 38.4503 26.9202 38.2352 26.7998 38.0688C26.6795 37.9024 26.4862 37.8031 26.2807 37.8031H24.8345L27.561 33.1292V36.5228C27.561 36.8768 27.8478 37.163 28.2012 37.163H29.5327ZM38.9778 15.086C37.3096 21.5524 33.8161 27.255 28.8414 31.6588V30.7612C28.8414 30.4719 28.6474 30.2184 28.3683 30.1428C28.0892 30.0679 27.794 30.1889 27.6481 30.4386L25.3678 34.3475C22.2239 36.4684 18.7663 38.0278 15.086 38.9772C14.8139 39.0476 14.5335 39.0835 14.2525 39.0835C14.0764 39.0835 13.9074 39.0579 13.739 39.0316C24.4197 33.2867 33.1318 24.7391 39.0758 14.1731C39.0771 14.2 39.0841 14.2249 39.0841 14.2518C39.0841 14.5329 39.0483 14.8133 38.9778 15.086ZM40.0028 12.4619C39.5348 11.3538 38.6462 10.4652 37.5381 9.99724L42.865 6L44 7.13503L40.0028 12.4619Z" fill="#BFD900"/>
</svg>
