<svg width="50" height="50" viewBox="0 0 50 50" fill="none" xmlns="http://www.w3.org/2000/svg">
<g clip-path="url(#clip0_104_3270)">
<path d="M13.435 15.9407C14.0504 15.9407 14.5494 15.4417 14.5494 14.8263V13.3145L16.9799 15.745C18.0153 16.7712 19.5817 15.2036 18.5559 14.169L16.1254 11.7386H17.6231C18.2385 11.7386 18.7375 11.2396 18.7375 10.6241C18.7375 10.0087 18.2385 9.5097 17.6231 9.5097H13.435C12.8195 9.5097 12.3206 10.0087 12.3206 10.6241V14.8263C12.3206 15.4417 12.8194 15.9407 13.435 15.9407Z" fill="#BFD900"/>
<path d="M31.4437 15.745C31.8789 16.1802 32.5845 16.1802 33.0197 15.745L35.4502 13.3145V14.8263C35.4502 15.4417 35.9492 15.9407 36.5647 15.9407C37.1801 15.9407 37.6791 15.4417 37.6791 14.8263V10.624C37.6791 10.0086 37.1801 9.50961 36.5647 9.50961H32.3766C31.7611 9.50961 31.2621 10.0086 31.2621 10.624C31.2621 11.2395 31.7611 11.7385 32.3766 11.7385H33.8742L31.4437 14.169C31.0085 14.6042 31.0085 15.3098 31.4437 15.745Z" fill="#BFD900"/>
<path d="M22.8039 10.8639L23.8629 9.80487V13.2421C23.8629 13.8576 24.3619 14.3566 24.9774 14.3566C25.5928 14.3566 26.0918 13.8576 26.0918 13.2421V9.80487L27.1608 10.8738C27.3784 11.0914 27.6636 11.2003 27.9487 11.2003C28.2339 11.2003 28.5192 11.0915 28.7367 10.8738C29.1719 10.4386 29.1719 9.73303 28.7367 9.29781L25.7653 6.32645C25.3302 5.89123 24.6245 5.89123 24.1893 6.32645L21.2279 9.28785C20.7927 9.72308 20.7927 10.4287 21.2279 10.8639C21.6631 11.2992 22.3687 11.2992 22.8039 10.8639Z" fill="#BFD900"/>
<path d="M40.3227 28.4037L39.853 27.8065C38.7686 26.4601 38.4492 24.6789 38.7302 22.9955C38.8554 22.1325 38.9031 21.2582 38.875 20.3801C38.8557 19.7757 38.3655 19.2933 37.7607 19.2933H10.6447C9.79472 19.2933 9.09672 19.9783 9.09583 20.8283V20.844C9.09583 24.265 10.2865 27.6061 12.4485 30.2517C13.803 31.9093 14.5067 33.938 14.4299 35.964C14.3827 37.2068 14.1126 38.3942 13.6267 39.4929C13.3314 40.1183 13.7457 40.9161 14.427 41.0349L29.0902 43.9749C29.7802 44.1334 30.4861 43.5199 30.4216 42.8124C30.3348 41.4459 30.6275 40.5759 30.851 40.1248H32.9289C35.3989 40.1248 37.5559 38.3706 38.0578 35.9538L38.629 33.2036L39.8462 32.2615C41.0354 31.3802 41.2619 29.5477 40.3227 28.4037Z" fill="#BFD900"/>
</g>
<defs>
<clipPath id="clip0_104_3270">
<rect width="38" height="38" fill="white" transform="translate(6 6)"/>
</clipPath>
</defs>
</svg>
