<svg width="38" height="38" viewBox="0 0 38 38" fill="none" xmlns="http://www.w3.org/2000/svg">
<g clip-path="url(#clip0_466_1740)">
<path d="M7.43474 9.9407C8.0502 9.9407 8.54917 9.44173 8.54917 8.82627V7.31451L10.9797 9.74501C12.015 10.7712 13.5815 9.20362 12.5557 8.16898L10.1252 5.73856H11.6228C12.2383 5.73856 12.7373 5.23959 12.7373 4.62413C12.7373 4.00867 12.2383 3.5097 11.6228 3.5097H7.43474C6.81928 3.5097 6.32031 4.00867 6.32031 4.62413V8.82627C6.32031 9.44173 6.8192 9.9407 7.43474 9.9407Z" fill="#BFD900"/>
<path d="M25.4436 9.74499C25.8788 10.1802 26.5844 10.1802 27.0196 9.74499L29.4501 7.31449V8.82625C29.4501 9.44172 29.9491 9.94068 30.5646 9.94068C31.18 9.94068 31.679 9.44172 31.679 8.82625V4.62404C31.679 4.00858 31.18 3.50961 30.5646 3.50961H26.3765C25.761 3.50961 25.262 4.00858 25.262 4.62404C25.262 5.2395 25.761 5.73847 26.3765 5.73847H27.8741L25.4436 8.16896C25.0084 8.60419 25.0084 9.30977 25.4436 9.74499Z" fill="#BFD900"/>
<path d="M16.8038 4.86388L17.8628 3.80487V7.24214C17.8628 7.8576 18.3618 8.35657 18.9772 8.35657C19.5927 8.35657 20.0917 7.8576 20.0917 7.24214V3.80487L21.1606 4.87383C21.3782 5.09144 21.6635 5.20029 21.9486 5.20029C22.2338 5.20029 22.519 5.09152 22.7366 4.87383C23.1718 4.43861 23.1718 3.73303 22.7366 3.29781L19.7652 0.326447C19.3301 -0.108775 18.6244 -0.108775 18.1892 0.326447L15.2278 3.28785C14.7926 3.72308 14.7926 4.42866 15.2278 4.86388C15.6629 5.29917 16.3686 5.29917 16.8038 4.86388Z" fill="#BFD900"/>
<path d="M34.3226 22.4037L33.8529 21.8065C32.7685 20.4601 32.4491 18.6789 32.7301 16.9955C32.8553 16.1325 32.903 15.2582 32.8749 14.3801C32.8555 13.7757 32.3653 13.2933 31.7606 13.2933H4.64461C3.7946 13.2933 3.09659 13.9783 3.0957 14.8283V14.844C3.0957 18.265 4.28636 21.6061 6.44835 24.2517C7.8029 25.9093 8.50662 27.938 8.4298 29.964C8.38263 31.2068 8.11249 32.3942 7.6266 33.4929C7.33127 34.1183 7.74562 34.9161 8.42683 35.0349L23.0901 37.9749C23.7801 38.1333 24.486 37.5199 24.4215 36.8124C24.3347 35.4459 24.6274 34.5759 24.8508 34.1248H26.9288C29.3987 34.1248 31.5558 32.3706 32.0577 29.9538L32.6289 27.2036L33.846 26.2615C35.0353 25.3802 35.2618 23.5477 34.3226 22.4037Z" fill="#BFD900"/>
</g>
<defs>
<clipPath id="clip0_466_1740">
<rect width="38" height="38" fill="white"/>
</clipPath>
</defs>
</svg>
