<svg width="34" height="34" viewBox="0 0 34 34" fill="none" xmlns="http://www.w3.org/2000/svg">
<g clip-path="url(#clip0_466_1749)">
<path d="M13.7969 16.9678H16.7138V19.8847H13.7969V16.9678Z" fill="#BFD900"/>
<path d="M15.3506 7.15063H18.2675V10.0669H15.3506V7.15063Z" fill="#BFD900"/>
<path d="M15.2556 26.8527C18.1048 26.8527 20.452 24.6622 20.7004 21.8767H9.81152C10.0598 24.6622 12.4071 26.8527 15.2556 26.8527Z" fill="#BFD900"/>
<path d="M17.8047 12.0588H20.7216V14.9758H17.8047V12.0588Z" fill="#BFD900"/>
<path d="M7.79744 20.8808C7.79744 20.3303 8.24296 19.8848 8.79347 19.8848H11.8053V15.9718C11.8053 15.4221 12.2515 14.9758 12.8013 14.9758H15.8132V12.0588H14.3551C13.8053 12.0588 13.359 11.6133 13.359 11.0628V6.15466C13.359 5.60422 13.8052 5.15864 14.3551 5.15864H19.264C19.8138 5.15864 20.26 5.60416 20.26 6.15466V10.0669H21.7182C21.9453 10.0669 22.1544 10.1446 22.3224 10.2728L28.2964 4.29814C21.6508 -1.62755 11.4149 -1.45084 4.98208 4.982C-1.44976 11.4138 -1.62859 21.6496 4.29816 28.2963L8.36249 24.2326C7.75189 22.7608 7.79744 21.5929 7.79744 20.8808Z" fill="#BFD900"/>
<path d="M22.714 21.3595V21.3867C22.714 25.4989 19.3681 28.8448 15.2553 28.8448C12.8862 28.8448 10.772 27.7346 9.40486 26.0068L5.70703 29.7053C8.82122 32.4821 12.7952 34 17.0017 34C26.3685 34 33.9676 26.4386 33.9993 17.0621C28.5483 18.0425 24.7179 19.8573 22.714 21.3595Z" fill="#BFD900"/>
<path d="M22.714 15.9718C22.714 16.5216 22.2678 16.9679 21.718 16.9679H18.7061V19.8848H21.3614C22.443 19.0375 26.346 16.3636 33.8903 15.0576C33.4973 11.5795 32.0504 8.33724 29.7051 5.70715L22.7139 12.6977V15.9718H22.714Z" fill="#BFD900"/>
</g>
<defs>
<clipPath id="clip0_466_1749">
<rect width="34" height="34" fill="white"/>
</clipPath>
</defs>
</svg>
