<svg width="50" height="50" viewBox="0 0 50 50" fill="none" xmlns="http://www.w3.org/2000/svg">
<g clip-path="url(#clip0_104_3279)">
<path d="M21.7969 24.9678H24.7138V27.8847H21.7969V24.9678Z" fill="#BFD900"/>
<path d="M23.3506 15.1506H26.2675V18.0669H23.3506V15.1506Z" fill="#BFD900"/>
<path d="M23.2556 34.8527C26.1048 34.8527 28.452 32.6622 28.7004 29.8767H17.8115C18.0598 32.6622 20.4071 34.8527 23.2556 34.8527Z" fill="#BFD900"/>
<path d="M25.8047 20.0588H28.7216V22.9758H25.8047V20.0588Z" fill="#BFD900"/>
<path d="M15.7974 28.8808C15.7974 28.3303 16.243 27.8848 16.7935 27.8848H19.8053V23.9718C19.8053 23.4221 20.2515 22.9758 20.8013 22.9758H23.8132V20.0588H22.3551C21.8053 20.0588 21.359 19.6133 21.359 19.0628V14.1547C21.359 13.6042 21.8052 13.1586 22.3551 13.1586H27.264C27.8138 13.1586 28.26 13.6042 28.26 14.1547V18.0669H29.7182C29.9453 18.0669 30.1544 18.1446 30.3224 18.2728L36.2964 12.2981C29.6508 6.37245 19.4149 6.54916 12.9821 12.982C6.55024 19.4138 6.37141 29.6496 12.2982 36.2963L16.3625 32.2326C15.7519 30.7608 15.7974 29.5929 15.7974 28.8808Z" fill="#BFD900"/>
<path d="M30.7139 29.3595V29.3867C30.7139 33.4989 27.368 36.8448 23.2552 36.8448C20.8861 36.8448 18.7719 35.7346 17.4047 34.0068L13.7069 37.7053C16.8211 40.4821 20.7951 42 25.0016 42C34.3684 42 41.9675 34.4386 41.9992 25.0621C36.5481 26.0425 32.7178 27.8573 30.7139 29.3595Z" fill="#BFD900"/>
<path d="M30.7139 23.9718C30.7139 24.5216 30.2677 24.9679 29.7179 24.9679H26.7059V27.8848H29.3613C30.4429 27.0375 34.3459 24.3636 41.8902 23.0576C41.4971 19.5795 40.0503 16.3372 37.705 13.7072L30.7137 20.6977V23.9718H30.7139Z" fill="#BFD900"/>
</g>
<defs>
<clipPath id="clip0_104_3279">
<rect width="34" height="34" fill="white" transform="translate(8 8)"/>
</clipPath>
</defs>
</svg>
