<svg width="34" height="29" viewBox="0 0 34 29" fill="none" xmlns="http://www.w3.org/2000/svg">
<g opacity="0.1">
<path d="M23.614 5.24549L23.8063 5.69941L25.9985 7.68233L25.8832 7.61065L28.0562 8.32737H27.9215L29.8638 8.2557C30.7099 8.11236 31.0176 7.51509 30.7484 6.4878C29.9407 5.69941 29.7676 5.4844 30.2484 5.86664L24.4794 4.91102C24.7101 4.76768 24.7678 4.76768 24.6332 4.91102C24.4986 5.05437 24.5371 5.03048 24.7294 4.79157C24.9217 4.28987 24.7294 5.00659 24.864 4.38543L32.6714 7.73011C32.4983 7.92123 32.4598 7.94512 32.5752 7.82567C32.7675 7.63454 32.7483 7.37175 32.5368 6.9895L24.9601 5.12604C24.7678 5.46051 24.9794 4.88713 24.9986 4.76768C24.9601 5.12604 24.9986 4.74379 24.9601 4.55267C24.9024 4.24209 24.9601 4.00318 24.9601 4.38543C24.7871 4.09874 24.7871 4.07485 24.9601 4.31376C25.0947 4.52877 25.2678 4.67212 25.4601 4.79157L27.6139 5.69941C27.8446 5.74719 28.0754 5.74719 28.3061 5.7233C28.4792 5.7233 29.0177 5.46051 28.4792 5.74719C28.2292 5.89054 28.0562 6.03388 27.7292 6.51169C26.537 8.23181 26.2485 11.0987 26.0562 13.3205C25.8639 15.5423 25.9793 17.7164 26.4024 19.9621C26.5178 20.5354 26.6524 21.1327 26.8254 21.6822C26.8831 21.8972 26.96 22.0883 27.0177 22.2794C27.3062 23.1634 26.8062 21.8733 27.1908 22.7095C27.4023 23.1634 27.5946 23.6412 27.8254 24.0951C27.96 24.3579 28.1138 24.6207 28.2677 24.8596C28.3446 24.9791 28.8446 25.6719 28.4408 25.1224C28.8446 25.648 29.383 26.3647 29.21 27.177C29.0369 27.9415 28.2677 28.3715 27.71 28.491C25.9024 28.8971 23.6717 28.2043 22.2679 26.6753C17.8066 21.8255 17.0374 14.085 18.3835 7.2284C18.7296 5.4844 19.3065 3.59704 20.3449 2.28306C21.7103 0.562944 23.7294 -0.105991 25.6909 0.013462C28.0946 0.180696 30.9407 1.35133 32.4021 3.93151C33.3252 5.57996 33.4406 7.39564 32.5368 9.09187C31.8829 10.3342 29.633 9.99971 28.7677 9.78469C27.4408 9.45023 25.7486 8.70962 24.9794 7.2284C24.4025 6.12944 24.2871 4.7199 25.1332 3.78817C26.4024 2.40252 28.5561 2.85644 29.9984 3.4537C31.056 3.90762 33.3636 5.2216 32.9598 7.10895C31.8252 12.5082 24.7294 10.1908 23.0179 6.44002C22.1141 4.4571 23.3063 3.11923 24.8255 2.76087C26.2485 2.40252 27.8831 2.78476 29.1907 3.52537C30.1522 4.05096 31.6137 5.03048 31.7483 6.53558C31.9214 8.7574 29.4984 8.92463 28.2292 8.70962C27.1716 8.51849 26.0562 8.16014 25.1524 7.41953C24.5755 6.94172 23.6909 6.225 23.614 5.29327V5.24549Z" fill="#868E96"/>
<path d="M6.63356 5.24549L6.82586 5.69941L9.01808 7.68233L8.9027 7.61065L11.0757 8.32737H10.9411L12.8833 8.2557C13.7294 8.11236 14.0371 7.51509 13.7679 6.4878C12.9602 5.69941 12.7872 5.4844 13.2679 5.86664L7.49891 4.91102C7.72967 4.76768 7.78736 4.76768 7.65275 4.91102C7.51814 5.05437 7.5566 5.03048 7.7489 4.79157C7.9412 4.28987 7.7489 5.00659 7.88351 4.38543L15.7294 7.73011C15.5563 7.92123 15.5178 7.94512 15.6332 7.82567C15.8255 7.63454 15.8063 7.37175 15.5947 6.9895L8.01812 5.12604C7.82582 5.46051 8.03735 4.88713 8.05658 4.76768C8.01812 5.12604 8.05658 4.74379 8.01812 4.55267C7.96043 4.24209 8.01812 4.00318 8.01812 4.38543C7.84505 4.09874 7.84505 4.07485 8.01812 4.31376C8.15273 4.52877 8.3258 4.67212 8.5181 4.79157L10.6719 5.69941C10.9026 5.74719 11.1334 5.74719 11.3641 5.7233C11.5372 5.7233 12.0757 5.46051 11.5372 5.74719C11.2872 5.89054 11.1141 6.03388 10.7872 6.51169C9.59498 8.23181 9.30653 11.0987 9.11423 13.3205C8.92193 15.5423 9.03731 17.7164 9.46037 19.9621C9.57575 20.5354 9.71036 21.1327 9.88343 21.6822C9.94112 21.8972 10.018 22.0883 10.0757 22.2794C10.3642 23.1634 9.8642 21.8733 10.2488 22.7095C10.4603 23.1634 10.6526 23.6412 10.8834 24.0951C11.018 24.3579 11.1718 24.6207 11.3257 24.8596C11.4026 24.9791 11.9026 25.6719 11.4987 25.1224C11.9026 25.648 12.441 26.3647 12.268 27.177C12.0949 27.9415 11.3257 28.3715 10.768 28.491C8.96039 28.8971 6.72971 28.2043 5.32592 26.6753C0.864552 21.8255 0.0953522 14.085 1.44145 7.22841C1.78759 5.4844 2.36449 3.59704 3.40291 2.28306C4.74901 0.562944 6.76817 -0.105991 8.7104 0.013462C11.1334 0.180696 13.9602 1.32744 15.4217 3.93151C16.3447 5.57996 16.4601 7.39564 15.5563 9.09187C14.9025 10.3342 12.6526 9.99971 11.7872 9.78469C10.4603 9.45023 8.76809 8.70962 7.99889 7.22841C7.42199 6.12944 7.30661 4.7199 8.15273 3.78817C9.42191 2.40252 11.5757 2.85644 13.0179 3.4537C14.0948 3.90762 16.4024 5.2216 16.0178 7.10895C14.8832 12.5082 7.78736 10.1908 6.07589 6.44002C5.17208 4.4571 6.36434 3.11923 7.88351 2.76087C9.30653 2.40252 10.9411 2.78477 12.2487 3.52537C13.2102 4.05096 14.6717 5.03048 14.8063 6.53558C14.9794 8.7574 12.5564 8.92463 11.2872 8.70962C10.2296 8.5185 9.11423 8.16014 8.21042 7.41953C7.63352 6.94172 6.74894 6.225 6.67202 5.29327L6.63356 5.24549Z" fill="#868E96"/>
</g>
</svg>
