<svg width="16" height="16" viewBox="0 0 16 16" fill="none" xmlns="http://www.w3.org/2000/svg">
<g clip-path="url(#clip0_430_143)">
<path d="M15.9585 6.13797C15.8538 5.81398 15.5664 5.58387 15.2265 5.55323L10.6084 5.13391L8.78233 0.859754C8.64768 0.546514 8.34103 0.34375 8.00033 0.34375C7.65962 0.34375 7.35297 0.546514 7.21832 0.860487L5.39223 5.13391L0.773455 5.55323C0.434091 5.58461 0.147463 5.81398 0.0421133 6.13797C-0.0632361 6.46195 0.0340565 6.8173 0.290777 7.04131L3.78147 10.1027L2.75214 14.6368C2.67682 14.9702 2.80622 15.3148 3.08284 15.5148C3.23153 15.6222 3.40548 15.6769 3.5809 15.6769C3.73215 15.6769 3.88218 15.6361 4.01683 15.5556L8.00033 13.1748L11.9824 15.5556C12.2738 15.7309 12.6411 15.7149 12.9171 15.5148C13.1938 15.3142 13.3231 14.9695 13.2478 14.6368L12.2185 10.1027L15.7091 7.04192C15.9659 6.8173 16.0639 6.46256 15.9585 6.13797Z" fill="#FFC107"/>
</g>
<defs>
<clipPath id="clip0_430_143">
<rect width="16" height="16" fill="white" transform="translate(0.000244141)"/>
</clipPath>
</defs>
</svg>
