<svg width="26" height="27" viewBox="0 0 26 27" fill="none" xmlns="http://www.w3.org/2000/svg">
<g id="responsibility 1">
<path id="Vector" d="M9.37901 9.61568L10.4205 9.85233C10.519 10.1738 10.6485 10.4861 10.807 10.7837L10.2377 11.6886C9.99194 12.0781 10.0056 12.4863 10.2728 12.7535L11.0426 13.5233C11.3097 13.7904 11.718 13.8041 12.1075 13.5588L13.0119 12.9896C13.3095 13.1475 13.6218 13.277 13.9437 13.3755L14.1809 14.4176C14.283 14.8665 14.581 15.1453 14.9588 15.1453H16.0476C16.4254 15.1453 16.7235 14.8665 16.8256 14.4176L17.0622 13.3755C17.3837 13.277 17.696 13.1475 17.994 12.9891L18.8985 13.5588C19.2885 13.8041 19.6962 13.7904 19.9633 13.5233L20.7332 12.7535C21.0003 12.4863 21.014 12.0786 20.7687 11.6886L20.1995 10.7842C20.3574 10.4866 20.4869 10.1743 20.5859 9.85233L21.6274 9.61568C22.0764 9.51311 22.3556 9.21502 22.3556 8.83721V7.74897C22.3556 7.37115 22.0764 7.07307 21.6274 6.97049L20.5854 6.73385C20.4869 6.4124 20.3574 6.1001 20.1995 5.80201L20.7687 4.8976C21.014 4.5076 21.0003 4.09982 20.7332 3.83272L19.9639 3.06287C19.6967 2.79576 19.2885 2.78205 18.8985 3.02732L17.994 3.59709C17.696 3.43865 17.3842 3.30916 17.0622 3.21064L16.8256 2.16861C16.7235 1.71971 16.4254 1.44092 16.0476 1.44092H14.9588C14.581 1.44092 14.283 1.71971 14.1809 2.16861L13.9437 3.21064C13.6223 3.30916 13.31 3.43865 13.0124 3.59709L12.1075 3.02732C11.718 2.78205 11.3097 2.79576 11.0426 3.06287L10.2728 3.83272C10.0056 4.09982 9.99194 4.50811 10.2377 4.8976L10.807 5.80201C10.6485 6.09959 10.519 6.4119 10.4205 6.73385L9.37901 6.97049C8.92959 7.07307 8.6508 7.37115 8.6508 7.74897V8.83721C8.6508 9.21502 8.92959 9.51311 9.37901 9.61568ZM12.2674 8.29334C12.2674 7.42904 12.6041 6.61604 13.215 6.00514C14.4769 4.74373 16.5295 4.74373 17.7909 6.00514C18.4023 6.61604 18.739 7.42904 18.739 8.29334C18.739 9.15764 18.4023 9.97014 17.7909 10.581C17.1602 11.2117 16.3315 11.5271 15.5032 11.5271C14.675 11.5271 13.8457 11.2117 13.215 10.581C12.6041 9.97014 12.2674 9.15713 12.2674 8.29334ZM17.4319 10.222C17.9473 9.70658 18.2312 9.02154 18.2312 8.29334C18.2312 7.56514 17.9473 6.87959 17.4319 6.36416C16.9002 5.83248 16.2015 5.56639 15.5032 5.56639C14.805 5.56639 14.1062 5.83248 13.574 6.36416C13.0591 6.87959 12.7753 7.56463 12.7753 8.29334C12.7753 9.02205 13.0591 9.70658 13.574 10.222C14.6379 11.2854 16.3685 11.2854 17.4319 10.222ZM14.2515 8.28369C14.3505 8.18467 14.5115 8.18467 14.6105 8.28369L15.0934 8.76662L16.3833 7.28127C16.4752 7.17514 16.6356 7.16397 16.7418 7.25588C16.8474 7.34779 16.8586 7.50826 16.7667 7.61389L15.2981 9.3049C15.2519 9.35822 15.1858 9.38971 15.1153 9.39225H15.1066C15.0391 9.39225 14.9746 9.36584 14.9269 9.31811L14.2515 8.64272C14.1524 8.54369 14.1524 8.38272 14.2515 8.28369ZM24.4327 20.095L15.2962 24.0454C14.8536 24.2369 14.365 24.2453 13.9203 24.069L8.22825 21.8134C8.2248 21.812 8.22135 21.8107 8.21779 21.8095C7.76939 21.6537 7.46013 21.5751 6.94785 21.7966L6.19797 22.1209L4.21303 17.5301L8.70722 15.5869C9.04263 15.4419 9.51068 15.4493 9.84518 15.6049C9.84975 15.607 9.85442 15.609 9.85909 15.6109L15.5684 17.8733C15.85 17.9849 16.0718 18.2008 16.1931 18.4813C16.3144 18.7617 16.3197 19.0713 16.2081 19.3529C15.9801 19.9282 15.3422 20.1983 14.7548 19.9684L10.4595 18.281C10.3257 18.2285 10.1745 18.2943 10.1219 18.4282C10.0694 18.562 10.1352 18.7131 10.269 18.7657L14.563 20.4526H14.5632C14.5639 20.4529 14.5646 20.4532 14.5653 20.4535L15.2474 20.7214C15.7094 20.9028 15.9659 20.8462 16.6709 20.5413L23.3727 17.6435C23.6984 17.5027 24.0611 17.4976 24.3939 17.6296C24.7266 17.7615 24.9875 18.0135 25.1284 18.3393C25.4206 19.0152 25.1084 19.8028 24.4327 20.095ZM16.5798 18.3224C16.4355 17.9887 16.1901 17.7196 15.8785 17.5477L17.212 16.4914C17.5404 16.2312 17.962 16.1469 18.3684 16.2601C18.716 16.3569 18.9977 16.5821 19.1636 16.8888L16.7083 18.8337C16.6937 18.6599 16.6511 18.4875 16.5797 18.3224L16.5798 18.3224ZM16.4642 20.0634C16.4025 20.09 16.3456 20.1142 16.2931 20.1358C16.4622 19.9767 16.5999 19.7777 16.6922 19.5448C16.6938 19.5407 16.6951 19.5365 16.6967 19.5324C16.7198 19.5233 16.7422 19.5113 16.7627 19.4951L20.19 16.7804C20.7672 16.3232 21.6087 16.4208 22.0658 16.998C22.1905 17.1554 22.2765 17.3373 22.32 17.5314L16.4641 20.0634L16.4642 20.0634ZM6.25444 23.5636C6.30943 23.6908 6.31136 23.8327 6.25972 23.963C6.20807 24.0933 6.10961 24.1953 5.9823 24.2503L4.54499 24.8718C4.28057 24.9861 3.97253 24.864 3.85827 24.5997L0.804388 17.5368C0.749392 17.4095 0.747463 17.2677 0.799158 17.1374C0.850752 17.0072 0.949267 16.9051 1.07658 16.85L2.51389 16.2286C2.64115 16.1735 2.78298 16.1716 2.91328 16.2232C3.04349 16.2748 3.14561 16.3734 3.2006 16.5007L6.25449 23.5635L6.25444 23.5636Z" fill="#BFD900"/>
</g>
</svg>
