<svg width="26" height="26" viewBox="0 0 26 26" fill="none" xmlns="http://www.w3.org/2000/svg">
<g id="stamina 1">
<path id="Vector" fill-rule="evenodd" clip-rule="evenodd" d="M19.2298 2.1526C20.0877 2.18296 20.7547 2.9261 20.7195 3.81244C20.6843 4.69878 19.9603 5.39266 19.1023 5.36219C18.2444 5.33182 17.5775 4.58869 17.6127 3.70235C17.6479 2.81606 18.3719 2.12218 19.2298 2.1526ZM10.2473 12.2226L6.36031 18.1961C6.35152 18.2096 6.35002 18.2252 6.35605 18.2402C6.36208 18.2551 6.37399 18.2653 6.38969 18.2689L8.40911 18.7349C8.42632 18.7389 8.44312 18.7337 8.45513 18.7207L12.7533 14.0549C12.7652 14.042 12.769 14.025 12.7638 14.0082C12.7586 13.9914 12.7458 13.9796 12.7287 13.9757C11.9461 13.7972 11.2359 13.4409 10.7016 12.827C10.5456 12.6478 10.4217 12.446 10.3316 12.2303C10.3246 12.2135 10.3099 12.2027 10.2917 12.2011C10.2736 12.1994 10.2572 12.2074 10.2473 12.2226ZM17.6501 8.3797L18.8809 9.01134C19.5712 9.36562 20.3153 9.2885 20.9427 8.82908L22.8889 7.40392C23.2723 7.12312 23.4271 6.60073 23.3011 6.14869C22.9653 4.94416 22.0572 5.4703 21.8057 6.1919L21.6981 6.50058C21.6979 6.50136 21.6976 6.50208 21.6974 6.50292C21.6909 6.52507 21.678 6.54561 21.6589 6.56147L20.3465 7.64962C20.3052 7.68389 20.2444 7.68696 20.1993 7.65352L18.746 6.57114C18.7318 6.56053 18.7142 6.55856 18.698 6.56578C18.6818 6.57301 18.6714 6.58731 18.6697 6.60499C18.6217 7.10622 18.3981 7.5555 18.0265 7.92111L17.6384 8.303C17.627 8.31413 17.6222 8.32869 17.6246 8.34439C17.627 8.35999 17.636 8.37242 17.6501 8.3797ZM17.556 7.44282C18.3362 6.67509 17.9863 5.63951 17.407 4.9114C17.0979 4.52296 15.989 3.54401 14.9682 2.84331C14.2832 2.37318 13.6493 2.03118 13.3574 2.09321L9.20445 2.97591C8.69194 3.0848 8.42268 3.80661 8.62829 4.31138C8.68404 4.44819 8.86292 4.54257 9.09494 4.58141C9.3462 4.62348 9.65217 4.59753 9.93812 4.48948C10.3266 4.34273 10.6569 3.8569 10.8522 3.83043L12.8642 3.55784C12.8647 3.55779 12.865 3.55774 12.8655 3.55764C12.9036 3.5514 12.9441 3.56377 12.9724 3.59419L14.76 5.51804C14.7991 5.5601 14.8032 5.62552 14.767 5.67248L11.1695 10.3214C10.7031 10.9241 10.7059 11.8101 11.2076 12.3865C11.4193 12.6297 11.6717 12.8289 11.9627 12.9863C12.2504 13.1419 12.5761 13.2574 12.9376 13.3348C12.9424 13.3358 12.9466 13.3361 12.9514 13.3357L16.3871 13.0654C16.3874 13.0654 16.3876 13.0654 16.3879 13.0653C16.4524 13.059 16.5106 13.1053 16.5185 13.17L16.9259 16.4221C16.928 16.4382 16.937 16.4512 16.9514 16.4587L18.5917 17.3116C18.6073 17.3197 18.6247 17.3189 18.6396 17.3095C18.6544 17.3 18.6625 17.2845 18.6617 17.2669L18.3999 11.4097C18.3876 11.1335 17.4922 11.0186 17.322 11.0002L14.526 10.6983C14.4265 10.6875 14.3828 10.5652 14.4549 10.4942L17.556 7.44282ZM15.2035 19.8286L11.8932 23.8272C11.8199 23.9157 11.6963 23.938 11.5984 23.887L1.47226 18.6218C1.19297 18.4766 1.18668 18.0739 1.46711 17.9223C1.54891 17.8781 1.6463 17.8628 1.74334 17.8852L10.7483 19.9633C10.7664 19.9674 10.7841 19.9615 10.796 19.9472L14.1063 15.9486C14.1796 15.8601 14.3031 15.8378 14.4011 15.8888L24.5272 21.1539C24.8065 21.2992 24.8128 21.7019 24.5323 21.8534C24.4505 21.8977 24.3531 21.9129 24.2561 21.8905L15.2512 19.8125C15.2331 19.8083 15.2153 19.8143 15.2035 19.8286Z" fill="#BFD900"/>
</g>
</svg>
