<svg width="50" height="50" viewBox="0 0 50 50" fill="none" xmlns="http://www.w3.org/2000/svg">
<path d="M24.9999 19.1667C27.3011 19.1667 29.1666 17.3012 29.1666 15C29.1666 12.6988 27.3011 10.8333 24.9999 10.8333C22.6987 10.8333 20.8333 12.6988 20.8333 15C20.8333 17.3012 22.6987 19.1667 24.9999 19.1667Z" fill="#BFD900"/>
<path d="M5.83333 13.3333H9.16667C9.625 13.3333 10 12.9583 10 12.5V10.0667C10.0417 10.2083 10.1 10.3333 10.175 10.425L18.5583 24.275C19.0083 24.8917 19.3 25.55 19.4167 26.2833L19.8917 28.3667C19.9667 28.7917 19.7833 29.2333 19.3917 29.6L14.875 33.75C14.1917 34.3667 13.7583 35.1667 13.6667 35.9917L12.7917 42.6167C12.675 43.775 13.6417 44.8083 15.0333 44.975C15.15 44.9917 15.2583 45 15.3833 45C16.6333 45 17.7 44.25 17.9167 43.2583L19.3083 37.9C19.4333 37.3667 19.8167 36.875 20.4 36.5167L23.6583 34.5C24.475 33.9917 25.5583 34 26.3667 34.5L29.575 36.4833C30.1917 36.8667 30.6083 37.3833 30.7417 37.9833L32.1083 43.225C32.3333 44.2667 33.4167 45 34.65 45C34.775 45 34.9 44.9917 35.025 44.975C36.3083 44.825 37.2417 43.925 37.2417 42.8333C37.2417 42.7333 37.2333 42.6417 37.225 42.6L36.3667 36.0583C36.2667 35.1833 35.8417 34.375 35.125 33.7167L30.3 29.2917C30.2 29.1917 30.0333 29 30.0667 28.8L30.5833 26.475C30.7167 25.625 31.075 24.8167 31.6333 24.075C31.65 24.05 31.6667 24.025 31.675 24L39.8333 10.525C39.9 10.4333 39.9583 10.3333 40 10.225V12.5C40 12.9583 40.375 13.3333 40.8333 13.3333H44.1667C44.625 13.3333 45 12.9583 45 12.5V5.83333C45 5.36667 44.625 5 44.1667 5H40.8333C40.375 5 40 5.36667 40 5.83333V8.33333H36.7083H36.5167H13.5167H13.3167H10V5.83333C10 5.36667 9.625 5 9.16667 5H5.83333C5.375 5 5 5.36667 5 5.83333V12.5C5 12.9583 5.375 13.3333 5.83333 13.3333ZM34.9167 10L27.1833 20.3667C25.7917 19.975 24.3417 19.975 22.85 20.375L15.1167 10H34.9167Z" fill="#BFD900"/>
</svg>
