<svg width="26" height="27" viewBox="0 0 26 27" fill="none" xmlns="http://www.w3.org/2000/svg">
<g id="zoom-in 1">
<path id="Vector" d="M23.5195 24.0192C23.3028 24.2251 23.032 24.3334 22.7503 24.3334C22.4687 24.3334 22.1978 24.2251 21.9812 24.0192L16.5645 18.6026C16.142 18.1801 16.142 17.4867 16.5645 17.0642C16.987 16.6417 17.6803 16.6417 18.1028 17.0642L23.5195 22.4809C23.942 22.9034 23.942 23.5967 23.5195 24.0192ZM17.3337 10.2501C17.3337 14.4317 13.932 17.8334 9.75033 17.8334C5.56866 17.8334 2.16699 14.4317 2.16699 10.2501C2.16699 6.06841 5.56866 2.66675 9.75033 2.66675C13.932 2.66675 17.3337 6.06841 17.3337 10.2501ZM13.0003 10.2501C13.0003 9.65425 12.5128 9.16675 11.917 9.16675H10.8337V8.08341C10.8337 7.48758 10.3462 7.00008 9.75033 7.00008C9.15449 7.00008 8.66699 7.48758 8.66699 8.08341V9.16675H7.58366C6.98783 9.16675 6.50033 9.65425 6.50033 10.2501C6.50033 10.8459 6.98783 11.3334 7.58366 11.3334H8.66699V12.4167C8.66699 13.0126 9.15449 13.5001 9.75033 13.5001C10.3462 13.5001 10.8337 13.0126 10.8337 12.4167V11.3334H11.917C12.5128 11.3334 13.0003 10.8459 13.0003 10.2501Z" fill="#BFD900"/>
</g>
</svg>
